<svg width="1254" height="1739" viewBox="0 0 1254 1739" fill="none" xmlns="http://www.w3.org/2000/svg">
<path d="M842.721 0C842.721 0 978.221 196 1089.72 582C1201.22 968 777 1349.5 777 1349.5C777 1349.5 447.721 1179 554.221 745.5C660.721 312 842.721 0 842.721 0Z" fill="url(#paint0_linear_301_263)"/>
<path d="M840.178 5C840.178 5 980.574 200.143 1092 586C1203.43 971.857 774.5 1354 774.5 1354C774.5 1354 518.868 1137.72 663.759 721.5C808.651 305.276 840.178 5 840.178 5Z" fill="url(#paint1_linear_301_263)"/>
<path d="M843 0C843 0 1110.32 357.5 998.825 734.5C887.325 1111.5 777 1349.5 777 1349.5C777 1349.5 620.325 1068 792.825 691C965.325 314 843 0 843 0Z" fill="url(#paint2_radial_301_263)" fill-opacity="0.73"/>
<path d="M639 460C639 460 477.375 780.249 535.5 1019C593.625 1257.75 777 1350 777 1350C777 1350 959.731 1105.51 830.951 878.472C702.172 651.43 639 460 639 460Z" fill="url(#paint3_radial_301_263)"/>
<path d="M843 0C843 0 1110.32 357.5 998.825 734.5C887.325 1111.5 777 1349.5 777 1349.5C777 1349.5 776 1129 948.5 752C1121 375 843 0 843 0Z" fill="#46188A"/>
<path d="M1026 536C1026 536 1092.25 742.044 1017.25 920.044C942.247 1098.04 777 1349.5 777 1349.5C777 1349.5 729.246 1108.04 877.747 905.044C1026.25 702.044 1026 536 1026 536Z" fill="url(#paint4_linear_301_263)"/>
<path d="M1026 536C1026 536 1092.25 742.044 1017.25 920.044C942.247 1098.04 777.001 1349.5 777.001 1349.5C777.001 1349.5 759.5 1123.04 908 920.044C1056.5 717.044 1026 536 1026 536Z" fill="url(#paint5_linear_301_263)"/>
<path d="M1104.5 795C1104.5 795 1097 867 1044.12 1006.32C991.246 1145.65 776.423 1349.3 776.423 1349.3C776.423 1349.3 830.775 1073.61 920.482 1050.47C1010.19 1027.32 1104.5 795 1104.5 795Z" fill="url(#paint6_linear_301_263)"/>
<path d="M1181.4 518.079C1181.4 518.079 1303.69 759.079 1195.4 1016.08C1087.12 1273.08 776.907 1350.08 776.907 1350.08C776.907 1350.08 708.907 1246.58 998.906 1016.08C1288.9 785.579 1181.4 518.079 1181.4 518.079Z" fill="url(#paint7_linear_301_263)"/>
<path d="M1026 536C1026 536 1092 705 1026.58 922.5C961.167 1140 777 1349.5 777 1349.5C777 1349.5 824.5 1098 954 922.5C1083.5 747 1026 536 1026 536Z" fill="url(#paint8_linear_301_263)"/>
<path d="M464.282 149.758C464.282 149.758 143.5 352.5 312.5 735.5C481.5 1118.5 777 1349.5 777 1349.5C777 1349.5 1242.02 1128.13 701.745 785.908C161.468 443.686 464.282 149.758 464.282 149.758Z" fill="url(#paint9_radial_301_263)"/>
<path d="M20.4018 536.402C20.4018 536.402 98.0079 642.354 298.597 701.792C499.185 761.229 540.701 724.973 680.589 909.171C820.476 1093.37 774.5 1354 774.5 1354C774.5 1354 756.565 1351.46 643.865 1269.78C531.166 1188.11 348.884 1031.8 199.255 895.016C49.6261 758.23 20.4018 536.402 20.4018 536.402Z" fill="url(#paint10_radial_301_263)"/>
<path d="M299 702C299 702 469 682.5 589.5 748C710 813.5 824.148 972.848 802.741 1167.48C781.334 1362.1 774 1353.5 774 1353.5C774 1353.5 797.344 1317.79 739.677 1253.15C682.01 1188.51 517.629 1081.86 405.828 982.368C294.027 882.88 299 702 299 702Z" fill="url(#paint11_radial_301_263)" fill-opacity="0.55"/>
<path d="M3.8712e-05 966.759C3.8712e-05 966.759 118.498 1005.89 213.999 966.759C309.499 927.627 636.185 788.259 725.498 1047.19C814.811 1306.13 773.345 1353.69 773.345 1353.69C773.345 1353.69 666.501 1186.26 575 1140.76C483.499 1095.26 432.999 1095.26 275.499 1095.26C117.999 1095.26 3.8712e-05 966.759 3.8712e-05 966.759Z" fill="url(#paint12_radial_301_263)"/>
<path d="M267.5 1361C267.5 1361 242.086 866.425 484.761 980.496C727.436 1094.57 787.318 1347.34 787.318 1347.34C787.318 1347.34 670.375 1282.32 498.035 1148.38C325.695 1014.43 267.5 1361 267.5 1361Z" fill="url(#paint13_radial_301_263)"/>
<path d="M268.492 1352.62C268.492 1352.62 280.068 892.12 492.534 1012.56C705 1133 774.5 1354 774.5 1354C774.5 1354 663.34 1287.78 501.664 1167.54C339.987 1047.3 268.492 1352.62 268.492 1352.62Z" fill="url(#paint14_linear_301_263)"/>
<path d="M267.5 1361.5C267.5 1361.5 324 938.5 502.5 1083.5C681 1228.5 774.3 1354.1 774.3 1354.1C774.3 1354.1 648.3 1294.59 492 1175C335.7 1055.41 267.5 1361.5 267.5 1361.5Z" fill="url(#paint15_linear_301_263)"/>
<path d="M1181.4 518.079C1181.4 518.079 1303.69 759.079 1195.4 1016.08C1087.12 1273.08 774.5 1354 774.5 1354C774.5 1354 645.407 1176.08 998.905 1016.08C1352.4 856.079 1181.4 518.079 1181.4 518.079Z" fill="url(#paint16_radial_301_263)"/>
<ellipse cx="780" cy="1448" rx="424" ry="47" fill="url(#paint17_radial_301_263)"/>
<path d="M86 1567.2C78.4 1567.2 71.8 1568.73 66.2 1571.8C60.7333 1574.87 56.2667 1579 52.8 1584.2C49.3333 1589.27 46.7333 1595.07 45 1601.6C43.4 1608.13 42.6 1614.8 42.6 1621.6C42.6 1628.4 43.4 1635.07 45 1641.6C46.7333 1648.13 49.3333 1654 52.8 1659.2C56.2667 1664.27 60.7333 1668.33 66.2 1671.4C71.8 1674.47 78.4 1676 86 1676C93.6 1676 100.133 1674.47 105.6 1671.4C111.2 1668.33 115.733 1664.27 119.2 1659.2C122.667 1654 125.2 1648.13 126.8 1641.6C128.533 1635.07 129.4 1628.4 129.4 1621.6C129.4 1614.8 128.533 1608.13 126.8 1601.6C125.2 1595.07 122.667 1589.27 119.2 1584.2C115.733 1579 111.2 1574.87 105.6 1571.8C100.133 1568.73 93.6 1567.2 86 1567.2ZM86 1546.8C96.6667 1546.8 106.2 1548.8 114.6 1552.8C123.133 1556.8 130.333 1562.2 136.2 1569C142.067 1575.8 146.533 1583.73 149.6 1592.8C152.8 1601.87 154.4 1611.47 154.4 1621.6C154.4 1631.87 152.8 1641.53 149.6 1650.6C146.533 1659.67 142.067 1667.6 136.2 1674.4C130.333 1681.2 123.133 1686.6 114.6 1690.6C106.2 1694.47 96.6667 1696.4 86 1696.4C75.3333 1696.4 65.7333 1694.47 57.2 1690.6C48.8 1686.6 41.6667 1681.2 35.8 1674.4C29.9333 1667.6 25.4 1659.67 22.2 1650.6C19.1333 1641.53 17.6 1631.87 17.6 1621.6C17.6 1611.47 19.1333 1601.87 22.2 1592.8C25.4 1583.73 29.9333 1575.8 35.8 1569C41.6667 1562.2 48.8 1556.8 57.2 1552.8C65.7333 1548.8 75.3333 1546.8 86 1546.8ZM173.953 1589.6H195.553V1604.8L195.953 1605.2C199.42 1599.47 203.953 1595 209.553 1591.8C215.153 1588.47 221.353 1586.8 228.153 1586.8C239.486 1586.8 248.42 1589.73 254.953 1595.6C261.486 1601.47 264.753 1610.27 264.753 1622V1693H241.953V1628C241.686 1619.87 239.953 1614 236.753 1610.4C233.553 1606.67 228.553 1604.8 221.753 1604.8C217.886 1604.8 214.42 1605.53 211.353 1607C208.286 1608.33 205.686 1610.27 203.553 1612.8C201.42 1615.2 199.753 1618.07 198.553 1621.4C197.353 1624.73 196.753 1628.27 196.753 1632V1693H173.953V1589.6ZM289.397 1550.2H312.197V1693H289.397V1550.2ZM337.639 1550.2H360.439V1571.8H337.639V1550.2ZM337.639 1589.6H360.439V1693H337.639V1589.6ZM482.681 1731.2H459.881V1679.6H459.481C457.615 1682.4 455.415 1684.87 452.881 1687C450.348 1689 447.548 1690.67 444.481 1692C441.415 1693.33 438.215 1694.27 434.881 1694.8C431.548 1695.47 428.215 1695.8 424.881 1695.8C417.281 1695.8 410.681 1694.33 405.081 1691.4C399.481 1688.33 394.815 1684.33 391.081 1679.4C387.481 1674.33 384.748 1668.53 382.881 1662C381.148 1655.47 380.281 1648.73 380.281 1641.8C380.281 1634.2 381.281 1627.07 383.281 1620.4C385.281 1613.73 388.281 1607.93 392.281 1603C396.281 1597.93 401.281 1594 407.281 1591.2C413.415 1588.27 420.548 1586.8 428.681 1586.8C435.348 1586.8 441.548 1588.13 447.281 1590.8C453.015 1593.33 457.481 1597.6 460.681 1603.6H461.081V1589.6H482.681V1731.2ZM403.081 1641.4C403.081 1645.93 403.548 1650.4 404.481 1654.8C405.548 1659.07 407.215 1662.93 409.481 1666.4C411.881 1669.73 414.881 1672.47 418.481 1674.6C422.081 1676.73 426.481 1677.8 431.681 1677.8C441.548 1677.8 448.815 1674.47 453.481 1667.8C458.281 1661 460.681 1652.2 460.681 1641.4C460.681 1630.07 458.215 1621.13 453.281 1614.6C448.481 1608.07 441.281 1604.8 431.681 1604.8C427.015 1604.8 422.881 1605.87 419.281 1608C415.681 1610 412.681 1612.73 410.281 1616.2C407.881 1619.53 406.081 1623.4 404.881 1627.8C403.681 1632.2 403.081 1636.73 403.081 1641.4ZM509.347 1666H537.147V1693H509.347V1666ZM604.611 1550.2H631.211L686.211 1693H659.411L646.011 1655.2H589.011L575.611 1693H549.811L604.611 1550.2ZM595.811 1636.2H639.411L618.011 1574.8H617.411L595.811 1636.2ZM792.209 1687.6C792.209 1703.2 787.809 1714.8 779.009 1722.4C770.343 1730.13 757.809 1734 741.409 1734C736.209 1734 730.943 1733.47 725.609 1732.4C720.409 1731.33 715.609 1729.53 711.209 1727C706.943 1724.47 703.343 1721.13 700.409 1717C697.476 1712.87 695.743 1707.8 695.209 1701.8H718.009C718.676 1705 719.809 1707.6 721.409 1709.6C723.009 1711.6 724.876 1713.13 727.009 1714.2C729.276 1715.4 731.743 1716.13 734.409 1716.4C737.076 1716.8 739.876 1717 742.809 1717C752.009 1717 758.743 1714.73 763.009 1710.2C767.276 1705.67 769.409 1699.13 769.409 1690.6V1674.8H769.009C765.809 1680.53 761.409 1685 755.809 1688.2C750.343 1691.4 744.409 1693 738.009 1693C729.743 1693 722.676 1691.6 716.809 1688.8C711.076 1685.87 706.276 1681.93 702.409 1677C698.676 1671.93 695.943 1666.13 694.209 1659.6C692.476 1653.07 691.609 1646.07 691.609 1638.6C691.609 1631.67 692.676 1625.07 694.809 1618.8C696.943 1612.53 700.009 1607.07 704.009 1602.4C708.009 1597.6 712.876 1593.8 718.609 1591C724.476 1588.2 731.076 1586.8 738.409 1586.8C744.943 1586.8 750.943 1588.2 756.409 1591C761.876 1593.67 766.076 1597.93 769.009 1603.8H769.409V1589.6H792.209V1687.6ZM741.609 1675C746.676 1675 750.943 1674 754.409 1672C758.009 1669.87 760.876 1667.13 763.009 1663.8C765.276 1660.33 766.876 1656.47 767.809 1652.2C768.876 1647.8 769.409 1643.4 769.409 1639C769.409 1634.6 768.876 1630.33 767.809 1626.2C766.743 1622.07 765.076 1618.4 762.809 1615.2C760.676 1612 757.809 1609.47 754.209 1607.6C750.743 1605.73 746.543 1604.8 741.609 1604.8C736.543 1604.8 732.276 1605.87 728.809 1608C725.343 1610.13 722.543 1612.93 720.409 1616.4C718.276 1619.73 716.743 1623.6 715.809 1628C714.876 1632.27 714.409 1636.53 714.409 1640.8C714.409 1645.07 714.943 1649.27 716.009 1653.4C717.076 1657.4 718.676 1661 720.809 1664.2C723.076 1667.4 725.876 1670 729.209 1672C732.676 1674 736.809 1675 741.609 1675ZM886.164 1632.2C885.897 1628.6 885.097 1625.13 883.764 1621.8C882.564 1618.47 880.831 1615.6 878.564 1613.2C876.431 1610.67 873.764 1608.67 870.564 1607.2C867.497 1605.6 864.031 1604.8 860.164 1604.8C856.164 1604.8 852.497 1605.53 849.164 1607C845.964 1608.33 843.164 1610.27 840.764 1612.8C838.497 1615.2 836.631 1618.07 835.164 1621.4C833.831 1624.73 833.097 1628.33 832.964 1632.2H886.164ZM832.964 1647.2C832.964 1651.2 833.497 1655.07 834.564 1658.8C835.764 1662.53 837.497 1665.8 839.764 1668.6C842.031 1671.4 844.897 1673.67 848.364 1675.4C851.831 1677 855.964 1677.8 860.764 1677.8C867.431 1677.8 872.764 1676.4 876.764 1673.6C880.897 1670.67 883.964 1666.33 885.964 1660.6H907.564C906.364 1666.2 904.297 1671.2 901.364 1675.6C898.431 1680 894.897 1683.73 890.764 1686.8C886.631 1689.73 881.964 1691.93 876.764 1693.4C871.697 1695 866.364 1695.8 860.764 1695.8C852.631 1695.8 845.431 1694.47 839.164 1691.8C832.897 1689.13 827.564 1685.4 823.164 1680.6C818.897 1675.8 815.631 1670.07 813.364 1663.4C811.231 1656.73 810.164 1649.4 810.164 1641.4C810.164 1634.07 811.297 1627.13 813.564 1620.6C815.964 1613.93 819.297 1608.13 823.564 1603.2C827.964 1598.13 833.231 1594.13 839.364 1591.2C845.497 1588.27 852.431 1586.8 860.164 1586.8C868.297 1586.8 875.564 1588.53 881.964 1592C888.497 1595.33 893.897 1599.8 898.164 1605.4C902.431 1611 905.497 1617.47 907.364 1624.8C909.364 1632 909.897 1639.47 908.964 1647.2H832.964ZM926.297 1589.6H947.897V1604.8L948.297 1605.2C951.764 1599.47 956.297 1595 961.897 1591.8C967.497 1588.47 973.697 1586.8 980.497 1586.8C991.83 1586.8 1000.76 1589.73 1007.3 1595.6C1013.83 1601.47 1017.1 1610.27 1017.1 1622V1693H994.297V1628C994.03 1619.87 992.297 1614 989.097 1610.4C985.897 1606.67 980.897 1604.8 974.097 1604.8C970.23 1604.8 966.764 1605.53 963.697 1607C960.63 1608.33 958.03 1610.27 955.897 1612.8C953.764 1615.2 952.097 1618.07 950.897 1621.4C949.697 1624.73 949.097 1628.27 949.097 1632V1693H926.297V1589.6ZM1110.94 1624.2C1110.01 1617.8 1107.41 1613 1103.14 1609.8C1099.01 1606.47 1093.74 1604.8 1087.34 1604.8C1084.41 1604.8 1081.27 1605.33 1077.94 1606.4C1074.61 1607.33 1071.54 1609.2 1068.74 1612C1065.94 1614.67 1063.61 1618.47 1061.74 1623.4C1059.87 1628.2 1058.94 1634.53 1058.94 1642.4C1058.94 1646.67 1059.41 1650.93 1060.34 1655.2C1061.41 1659.47 1063.01 1663.27 1065.14 1666.6C1067.41 1669.93 1070.27 1672.67 1073.74 1674.8C1077.21 1676.8 1081.41 1677.8 1086.34 1677.8C1093.01 1677.8 1098.47 1675.73 1102.74 1671.6C1107.14 1667.47 1109.87 1661.67 1110.94 1654.2H1133.74C1131.61 1667.67 1126.47 1678 1118.34 1685.2C1110.34 1692.27 1099.67 1695.8 1086.34 1695.8C1078.21 1695.8 1071.01 1694.47 1064.74 1691.8C1058.61 1689 1053.41 1685.27 1049.14 1680.6C1044.87 1675.8 1041.61 1670.13 1039.34 1663.6C1037.21 1657.07 1036.14 1650 1036.14 1642.4C1036.14 1634.67 1037.21 1627.4 1039.34 1620.6C1041.47 1613.8 1044.67 1607.93 1048.94 1603C1053.21 1597.93 1058.47 1594 1064.74 1591.2C1071.14 1588.27 1078.61 1586.8 1087.14 1586.8C1093.14 1586.8 1098.81 1587.6 1104.14 1589.2C1109.61 1590.67 1114.41 1592.93 1118.54 1596C1122.81 1599.07 1126.27 1602.93 1128.94 1607.6C1131.61 1612.27 1133.21 1617.8 1133.74 1624.2H1110.94ZM1140.87 1589.6H1165.87L1192.87 1666.8H1193.27L1219.47 1589.6H1243.27L1203.07 1698.6C1201.21 1703.27 1199.34 1707.73 1197.47 1712C1195.74 1716.27 1193.54 1720 1190.87 1723.2C1188.34 1726.53 1185.14 1729.13 1181.27 1731C1177.41 1733 1172.47 1734 1166.47 1734C1161.14 1734 1155.87 1733.6 1150.67 1732.8V1713.6C1152.54 1713.87 1154.34 1714.13 1156.07 1714.4C1157.81 1714.8 1159.61 1715 1161.47 1715C1164.14 1715 1166.34 1714.67 1168.07 1714C1169.81 1713.33 1171.21 1712.33 1172.27 1711C1173.47 1709.8 1174.47 1708.33 1175.27 1706.6C1176.07 1704.87 1176.81 1702.87 1177.47 1700.6L1180.07 1692.6L1140.87 1589.6Z" fill="#4D169E"/>
<defs>
<linearGradient id="paint0_linear_301_263" x1="820.705" y1="0" x2="742.5" y2="1369.5" gradientUnits="userSpaceOnUse">
<stop stop-color="#BD52C6"/>
<stop offset="1" stop-color="#4D179F"/>
</linearGradient>
<linearGradient id="paint1_linear_301_263" x1="824.917" y1="-6.01301e-07" x2="746.718" y2="1368.99" gradientUnits="userSpaceOnUse">
<stop stop-color="#9E3AA0"/>
<stop offset="0.380208" stop-color="#E26FE7"/>
<stop offset="1" stop-color="#5017A0"/>
</linearGradient>
<radialGradient id="paint2_radial_301_263" cx="0" cy="0" r="1" gradientUnits="userSpaceOnUse" gradientTransform="translate(930.5 724) rotate(104.569) scale(651.964 196.391)">
<stop stop-color="#FEF752"/>
<stop offset="0.6875" stop-color="#ED712E"/>
</radialGradient>
<radialGradient id="paint3_radial_301_263" cx="0" cy="0" r="1" gradientUnits="userSpaceOnUse" gradientTransform="translate(675.937 915.166) rotate(72.4082) scale(445.043 166.582)">
<stop offset="0.171875" stop-color="#34689E"/>
<stop offset="1" stop-color="#5017A0" stop-opacity="0.46"/>
</radialGradient>
<linearGradient id="paint4_linear_301_263" x1="1060.34" y1="547.769" x2="784.661" y2="1352.13" gradientUnits="userSpaceOnUse">
<stop offset="0.140625" stop-color="#57BB82"/>
<stop offset="1" stop-color="#B7CE38"/>
</linearGradient>
<linearGradient id="paint5_linear_301_263" x1="1073.51" y1="552.282" x2="797.831" y2="1356.64" gradientUnits="userSpaceOnUse">
<stop stop-color="#84179F"/>
<stop offset="0.760417" stop-color="#FDF77D"/>
</linearGradient>
<linearGradient id="paint6_linear_301_263" x1="1028.18" y1="716.011" x2="807.48" y2="1359.95" gradientUnits="userSpaceOnUse">
<stop offset="0.348958" stop-color="#3E2A58" stop-opacity="0.25"/>
<stop offset="1" stop-color="#4B9FD1" stop-opacity="0"/>
</linearGradient>
<linearGradient id="paint7_linear_301_263" x1="1199.91" y1="524.422" x2="902.217" y2="1393.03" gradientUnits="userSpaceOnUse">
<stop stop-color="#2C55A5"/>
<stop offset="1" stop-color="#55B683"/>
</linearGradient>
<linearGradient id="paint8_linear_301_263" x1="1085.77" y1="556.484" x2="810.091" y2="1360.84" gradientUnits="userSpaceOnUse">
<stop stop-color="#C66550"/>
<stop offset="0.6875" stop-color="#ECCA71"/>
</linearGradient>
<radialGradient id="paint9_radial_301_263" cx="0" cy="0" r="1" gradientUnits="userSpaceOnUse" gradientTransform="translate(506 516) rotate(69.5874) scale(874.752 340.845)">
<stop stop-color="#4E17A0"/>
<stop offset="0.828125" stop-color="#B94EBE"/>
<stop offset="0.96875" stop-color="#E854EF"/>
</radialGradient>
<radialGradient id="paint10_radial_301_263" cx="0" cy="0" r="1" gradientUnits="userSpaceOnUse" gradientTransform="translate(704.097 980.013) rotate(-148.124) scale(767.15 2146.2)">
<stop stop-color="#1B438D"/>
<stop offset="1" stop-color="#56C18C"/>
</radialGradient>
<radialGradient id="paint11_radial_301_263" cx="0" cy="0" r="1" gradientUnits="userSpaceOnUse" gradientTransform="translate(802.565 1022.83) rotate(-150.25) scale(572.029 1785.43)">
<stop stop-color="#5017A0"/>
<stop offset="1" stop-color="#DB6550"/>
</radialGradient>
<radialGradient id="paint12_radial_301_263" cx="0" cy="0" r="1" gradientUnits="userSpaceOnUse" gradientTransform="translate(801.5 1168.5) rotate(-148.979) scale(512.267 816.644)">
<stop stop-color="#EAC272"/>
<stop offset="1" stop-color="#DD6652"/>
</radialGradient>
<radialGradient id="paint13_radial_301_263" cx="0" cy="0" r="1" gradientUnits="userSpaceOnUse" gradientTransform="translate(403 1041) rotate(37.3397) scale(468.428 501.363)">
<stop stop-color="#4756A8"/>
<stop offset="0.994792" stop-color="#9A389F"/>
</radialGradient>
<linearGradient id="paint14_linear_301_263" x1="173.774" y1="1150.68" x2="755.604" y2="1352.74" gradientUnits="userSpaceOnUse">
<stop stop-color="#DED619"/>
<stop offset="0.458333" stop-color="#58BB82"/>
<stop offset="0.963542" stop-color="#5017A0"/>
</linearGradient>
<linearGradient id="paint15_linear_301_263" x1="272.134" y1="1370.15" x2="674.267" y2="1161.4" gradientUnits="userSpaceOnUse">
<stop offset="0.21875" stop-color="#A13BA1"/>
<stop offset="1" stop-color="#49198B"/>
</linearGradient>
<radialGradient id="paint16_radial_301_263" cx="0" cy="0" r="1" gradientUnits="userSpaceOnUse" gradientTransform="translate(1291.5 969.001) rotate(146.088) scale(501.869 189.068)">
<stop stop-color="#D3644E"/>
<stop offset="0.22333" stop-color="#98436D"/>
<stop offset="0.671875" stop-color="#6E298B"/>
<stop offset="1" stop-color="#5017A0"/>
</radialGradient>
<radialGradient id="paint17_radial_301_263" cx="0" cy="0" r="1" gradientUnits="userSpaceOnUse" gradientTransform="translate(780 1448) rotate(90) scale(47 424)">
<stop stop-color="#49159A"/>
<stop offset="0.255208" stop-color="#49159A" stop-opacity="0.510417"/>
<stop offset="0.609375" stop-color="#49159A" stop-opacity="0.189175"/>
<stop offset="1" stop-color="#49159A" stop-opacity="0"/>
</radialGradient>
</defs>
</svg>
