<svg width="2711" height="799" viewBox="0 0 2711 799" fill="none" xmlns="http://www.w3.org/2000/svg">
<path d="M493.939 0C493.939 0 573.359 114.88 638.712 341.124C704.065 567.368 455.419 790.975 455.419 790.975C455.419 790.975 262.42 691.041 324.843 436.956C387.265 182.871 493.939 0 493.939 0Z" fill="url(#paint0_linear_301_289)"/>
<path d="M492.448 2.93066C492.448 2.93066 574.738 117.309 640.048 343.469C705.357 569.629 453.953 793.612 453.953 793.612C453.953 793.612 304.121 666.848 389.045 422.889C473.969 178.93 492.448 2.93066 492.448 2.93066Z" fill="url(#paint1_linear_301_289)"/>
<path d="M494.103 0C494.103 0 650.788 209.539 585.435 430.508C520.082 651.477 455.418 790.975 455.418 790.975C455.418 790.975 363.587 625.981 464.694 405.012C565.8 184.043 494.103 0 494.103 0Z" fill="url(#paint2_radial_301_289)" fill-opacity="0.73"/>
<path d="M374.534 269.617C374.534 269.617 279.802 457.323 313.87 597.261C347.938 737.199 455.419 791.268 455.419 791.268C455.419 791.268 562.522 647.969 487.041 514.894C411.56 381.82 374.534 269.617 374.534 269.617Z" fill="url(#paint3_radial_301_289)"/>
<path d="M494.103 0C494.103 0 650.788 209.539 585.435 430.508C520.082 651.477 455.418 790.975 455.418 790.975C455.418 790.975 454.832 661.734 555.939 440.766C657.045 219.797 494.103 0 494.103 0Z" fill="#46188A"/>
<path d="M601.363 314.163C601.363 314.163 640.192 434.93 596.233 539.26C552.273 643.59 455.418 790.975 455.418 790.975C455.418 790.975 427.429 649.452 514.469 530.469C601.508 411.485 601.363 314.163 601.363 314.163Z" fill="url(#paint4_linear_301_289)"/>
<path d="M601.364 314.162C601.364 314.162 640.193 434.93 596.234 539.26C552.274 643.59 455.419 790.974 455.419 790.974C455.419 790.974 445.161 658.243 532.201 539.26C619.241 420.277 601.364 314.162 601.364 314.162Z" fill="url(#paint5_linear_301_289)"/>
<path d="M647.375 465.969C647.375 465.969 642.979 508.17 611.986 589.83C580.994 671.49 455.08 790.859 455.08 790.859C455.08 790.859 486.937 629.268 539.517 615.703C592.097 602.139 647.375 465.969 647.375 465.969Z" fill="url(#paint6_linear_301_289)"/>
<path d="M692.45 303.658C692.45 303.658 764.125 444.914 700.655 595.548C637.186 746.182 455.364 791.314 455.364 791.314C455.364 791.314 415.508 730.65 585.483 595.548C755.459 460.447 692.45 303.658 692.45 303.658Z" fill="url(#paint7_linear_301_289)"/>
<path d="M601.363 314.163C601.363 314.163 640.047 413.218 601.705 540.7C563.363 668.182 455.418 790.975 455.418 790.975C455.418 790.975 483.259 643.565 559.162 540.7C635.065 437.835 601.363 314.163 601.363 314.163Z" fill="url(#paint8_linear_301_289)"/>
<path d="M272.126 87.7767C272.126 87.7767 84.1085 206.609 183.164 431.095C282.219 655.58 455.418 790.975 455.418 790.975C455.418 790.975 727.979 661.225 411.309 460.64C94.64 260.055 272.126 87.7767 272.126 87.7767Z" fill="url(#paint9_radial_301_289)"/>
<path d="M11.9578 314.398C11.9578 314.398 57.4447 376.499 175.015 411.337C292.584 446.175 316.918 424.924 398.91 532.887C480.901 640.851 453.953 793.612 453.953 793.612C453.953 793.612 443.441 792.123 377.385 744.251C311.329 696.379 204.49 604.765 116.788 524.591C29.0869 444.417 11.9578 314.398 11.9578 314.398Z" fill="url(#paint10_radial_301_289)"/>
<path d="M175.251 411.46C175.251 411.46 274.893 400.03 345.52 438.421C416.148 476.812 483.053 570.21 470.506 684.286C457.959 798.361 453.66 793.32 453.66 793.32C453.66 793.32 467.343 772.388 433.543 734.5C399.743 696.612 303.395 634.102 237.866 575.79C172.337 517.478 175.251 411.46 175.251 411.46Z" fill="url(#paint11_radial_301_289)" fill-opacity="0.55"/>
<path d="M0.000120038 566.641C0.000120038 566.641 69.4549 589.577 125.43 566.641C181.405 543.705 372.884 462.017 425.232 613.786C477.581 765.554 453.276 793.433 453.276 793.433C453.276 793.433 390.653 695.295 337.022 668.626C283.39 641.958 253.791 641.958 161.477 641.958C69.162 641.958 0.000120038 566.641 0.000120038 566.641Z" fill="url(#paint12_radial_301_289)"/>
<path d="M156.789 797.715C156.789 797.715 141.893 507.833 284.131 574.693C426.368 641.553 461.467 789.709 461.467 789.709C461.467 789.709 392.923 751.6 291.911 673.091C190.898 594.583 156.789 797.715 156.789 797.715Z" fill="url(#paint13_radial_301_289)"/>
<path d="M157.37 792.806C157.37 792.806 164.155 522.893 288.687 593.486C413.218 664.079 453.954 793.612 453.954 793.612C453.954 793.612 388.8 754.802 294.038 684.324C199.275 613.847 157.37 792.806 157.37 792.806Z" fill="url(#paint14_linear_301_289)"/>
<path d="M156.788 798.009C156.788 798.009 189.904 550.078 294.528 635.066C399.151 720.054 453.836 793.67 453.836 793.67C453.836 793.67 379.985 758.792 288.373 688.697C196.762 618.601 156.788 798.009 156.788 798.009Z" fill="url(#paint15_linear_301_289)"/>
<path d="M692.448 303.658C692.448 303.658 764.124 444.914 700.654 595.548C637.185 746.182 453.953 793.612 453.953 793.612C453.953 793.612 378.288 689.328 585.482 595.548C792.676 501.768 692.448 303.658 692.448 303.658Z" fill="url(#paint16_radial_301_289)"/>
<path d="M974 322.3C962.6 322.3 952.7 324.6 944.3 329.2C936.1 333.8 929.4 340 924.2 347.8C919 355.4 915.1 364.1 912.5 373.9C910.1 383.7 908.9 393.7 908.9 403.9C908.9 414.1 910.1 424.1 912.5 433.9C915.1 443.7 919 452.5 924.2 460.3C929.4 467.9 936.1 474 944.3 478.6C952.7 483.2 962.6 485.5 974 485.5C985.4 485.5 995.2 483.2 1003.4 478.6C1011.8 474 1018.6 467.9 1023.8 460.3C1029 452.5 1032.8 443.7 1035.2 433.9C1037.8 424.1 1039.1 414.1 1039.1 403.9C1039.1 393.7 1037.8 383.7 1035.2 373.9C1032.8 364.1 1029 355.4 1023.8 347.8C1018.6 340 1011.8 333.8 1003.4 329.2C995.2 324.6 985.4 322.3 974 322.3ZM974 291.7C990 291.7 1004.3 294.7 1016.9 300.7C1029.7 306.7 1040.5 314.8 1049.3 325C1058.1 335.2 1064.8 347.1 1069.4 360.7C1074.2 374.3 1076.6 388.7 1076.6 403.9C1076.6 419.3 1074.2 433.8 1069.4 447.4C1064.8 461 1058.1 472.9 1049.3 483.1C1040.5 493.3 1029.7 501.4 1016.9 507.4C1004.3 513.2 990 516.1 974 516.1C958 516.1 943.6 513.2 930.8 507.4C918.2 501.4 907.5 493.3 898.7 483.1C889.9 472.9 883.1 461 878.3 447.4C873.7 433.8 871.4 419.3 871.4 403.9C871.4 388.7 873.7 374.3 878.3 360.7C883.1 347.1 889.9 335.2 898.7 325C907.5 314.8 918.2 306.7 930.8 300.7C943.6 294.7 958 291.7 974 291.7ZM1105.93 355.9H1138.33V378.7L1138.93 379.3C1144.13 370.7 1150.93 364 1159.33 359.2C1167.73 354.2 1177.03 351.7 1187.23 351.7C1204.23 351.7 1217.63 356.1 1227.43 364.9C1237.23 373.7 1242.13 386.9 1242.13 404.5V511H1207.93V413.5C1207.53 401.3 1204.93 392.5 1200.13 387.1C1195.33 381.5 1187.83 378.7 1177.63 378.7C1171.83 378.7 1166.63 379.8 1162.03 382C1157.43 384 1153.53 386.9 1150.33 390.7C1147.13 394.3 1144.63 398.6 1142.83 403.6C1141.03 408.6 1140.13 413.9 1140.13 419.5V511H1105.93V355.9ZM1279.1 296.8H1313.3V511H1279.1V296.8ZM1351.46 296.8H1385.66V329.2H1351.46V296.8ZM1351.46 355.9H1385.66V511H1351.46V355.9ZM1569.02 568.3H1534.82V490.9H1534.22C1531.42 495.1 1528.12 498.8 1524.32 502C1520.52 505 1516.32 507.5 1511.72 509.5C1507.12 511.5 1502.32 512.9 1497.32 513.7C1492.32 514.7 1487.32 515.2 1482.32 515.2C1470.92 515.2 1461.02 513 1452.62 508.6C1444.22 504 1437.22 498 1431.62 490.6C1426.22 483 1422.12 474.3 1419.32 464.5C1416.72 454.7 1415.42 444.6 1415.42 434.2C1415.42 422.8 1416.92 412.1 1419.92 402.1C1422.92 392.1 1427.42 383.4 1433.42 376C1439.42 368.4 1446.92 362.5 1455.92 358.3C1465.12 353.9 1475.82 351.7 1488.02 351.7C1498.02 351.7 1507.32 353.7 1515.92 357.7C1524.52 361.5 1531.22 367.9 1536.02 376.9H1536.62V355.9H1569.02V568.3ZM1449.62 433.6C1449.62 440.4 1450.32 447.1 1451.72 453.7C1453.32 460.1 1455.82 465.9 1459.22 471.1C1462.82 476.1 1467.32 480.2 1472.72 483.4C1478.12 486.6 1484.72 488.2 1492.52 488.2C1507.32 488.2 1518.22 483.2 1525.22 473.2C1532.42 463 1536.02 449.8 1536.02 433.6C1536.02 416.6 1532.32 403.2 1524.92 393.4C1517.72 383.6 1506.92 378.7 1492.52 378.7C1485.52 378.7 1479.32 380.3 1473.92 383.5C1468.52 386.5 1464.02 390.6 1460.42 395.8C1456.82 400.8 1454.12 406.6 1452.32 413.2C1450.52 419.8 1449.62 426.6 1449.62 433.6ZM1609.02 470.5H1650.72V511H1609.02V470.5ZM1751.92 296.8H1791.82L1874.32 511H1834.12L1814.02 454.3H1728.52L1708.42 511H1669.72L1751.92 296.8ZM1738.72 425.8H1804.12L1772.02 333.7H1771.12L1738.72 425.8ZM2033.31 502.9C2033.31 526.3 2026.71 543.7 2013.51 555.1C2000.51 566.7 1981.71 572.5 1957.11 572.5C1949.31 572.5 1941.41 571.7 1933.41 570.1C1925.61 568.5 1918.41 565.8 1911.81 562C1905.41 558.2 1900.01 553.2 1895.61 547C1891.21 540.8 1888.61 533.2 1887.81 524.2H1922.01C1923.01 529 1924.71 532.9 1927.11 535.9C1929.51 538.9 1932.31 541.2 1935.51 542.8C1938.91 544.6 1942.61 545.7 1946.61 546.1C1950.61 546.7 1954.81 547 1959.21 547C1973.01 547 1983.11 543.6 1989.51 536.8C1995.91 530 1999.11 520.2 1999.11 507.4V483.7H1998.51C1993.71 492.3 1987.11 499 1978.71 503.8C1970.51 508.6 1961.61 511 1952.01 511C1939.61 511 1929.01 508.9 1920.21 504.7C1911.61 500.3 1904.41 494.4 1898.61 487C1893.01 479.4 1888.91 470.7 1886.31 460.9C1883.71 451.1 1882.41 440.6 1882.41 429.4C1882.41 419 1884.01 409.1 1887.21 399.7C1890.41 390.3 1895.01 382.1 1901.01 375.1C1907.01 367.9 1914.31 362.2 1922.91 358C1931.71 353.8 1941.61 351.7 1952.61 351.7C1962.41 351.7 1971.41 353.8 1979.61 358C1987.81 362 1994.11 368.4 1998.51 377.2H1999.11V355.9H2033.31V502.9ZM1957.41 484C1965.01 484 1971.41 482.5 1976.61 479.5C1982.01 476.3 1986.31 472.2 1989.51 467.2C1992.91 462 1995.31 456.2 1996.71 449.8C1998.31 443.2 1999.11 436.6 1999.11 430C1999.11 423.4 1998.31 417 1996.71 410.8C1995.11 404.6 1992.61 399.1 1989.21 394.3C1986.01 389.5 1981.71 385.7 1976.31 382.9C1971.11 380.1 1964.81 378.7 1957.41 378.7C1949.81 378.7 1943.41 380.3 1938.21 383.5C1933.01 386.7 1928.81 390.9 1925.61 396.1C1922.41 401.1 1920.11 406.9 1918.71 413.5C1917.31 419.9 1916.61 426.3 1916.61 432.7C1916.61 439.1 1917.41 445.4 1919.01 451.6C1920.61 457.6 1923.01 463 1926.21 467.8C1929.61 472.6 1933.81 476.5 1938.81 479.5C1944.01 482.5 1950.21 484 1957.41 484ZM2174.25 419.8C2173.85 414.4 2172.65 409.2 2170.65 404.2C2168.85 399.2 2166.25 394.9 2162.85 391.3C2159.65 387.5 2155.65 384.5 2150.85 382.3C2146.25 379.9 2141.05 378.7 2135.25 378.7C2129.25 378.7 2123.75 379.8 2118.75 382C2113.95 384 2109.75 386.9 2106.15 390.7C2102.75 394.3 2099.95 398.6 2097.75 403.6C2095.75 408.6 2094.65 414 2094.45 419.8H2174.25ZM2094.45 442.3C2094.45 448.3 2095.25 454.1 2096.85 459.7C2098.65 465.3 2101.25 470.2 2104.65 474.4C2108.05 478.6 2112.35 482 2117.55 484.6C2122.75 487 2128.95 488.2 2136.15 488.2C2146.15 488.2 2154.15 486.1 2160.15 481.9C2166.35 477.5 2170.95 471 2173.95 462.4H2206.35C2204.55 470.8 2201.45 478.3 2197.05 484.9C2192.65 491.5 2187.35 497.1 2181.15 501.7C2174.95 506.1 2167.95 509.4 2160.15 511.6C2152.55 514 2144.55 515.2 2136.15 515.2C2123.95 515.2 2113.15 513.2 2103.75 509.2C2094.35 505.2 2086.35 499.6 2079.75 492.4C2073.35 485.2 2068.45 476.6 2065.05 466.6C2061.85 456.6 2060.25 445.6 2060.25 433.6C2060.25 422.6 2061.95 412.2 2065.35 402.4C2068.95 392.4 2073.95 383.7 2080.35 376.3C2086.95 368.7 2094.85 362.7 2104.05 358.3C2113.25 353.9 2123.65 351.7 2135.25 351.7C2147.45 351.7 2158.35 354.3 2167.95 359.5C2177.75 364.5 2185.85 371.2 2192.25 379.6C2198.65 388 2203.25 397.7 2206.05 408.7C2209.05 419.5 2209.85 430.7 2208.45 442.3H2094.45ZM2234.45 355.9H2266.85V378.7L2267.45 379.3C2272.65 370.7 2279.45 364 2287.85 359.2C2296.25 354.2 2305.55 351.7 2315.75 351.7C2332.75 351.7 2346.15 356.1 2355.95 364.9C2365.75 373.7 2370.65 386.9 2370.65 404.5V511H2336.45V413.5C2336.05 401.3 2333.45 392.5 2328.65 387.1C2323.85 381.5 2316.35 378.7 2306.15 378.7C2300.35 378.7 2295.15 379.8 2290.55 382C2285.95 384 2282.05 386.9 2278.85 390.7C2275.65 394.3 2273.15 398.6 2271.35 403.6C2269.55 408.6 2268.65 413.9 2268.65 419.5V511H2234.45V355.9ZM2511.41 407.8C2510.01 398.2 2506.11 391 2499.71 386.2C2493.51 381.2 2485.61 378.7 2476.01 378.7C2471.61 378.7 2466.91 379.5 2461.91 381.1C2456.91 382.5 2452.31 385.3 2448.11 389.5C2443.91 393.5 2440.41 399.2 2437.61 406.6C2434.81 413.8 2433.41 423.3 2433.41 435.1C2433.41 441.5 2434.11 447.9 2435.51 454.3C2437.11 460.7 2439.51 466.4 2442.71 471.4C2446.11 476.4 2450.41 480.5 2455.61 483.7C2460.81 486.7 2467.11 488.2 2474.51 488.2C2484.51 488.2 2492.71 485.1 2499.11 478.9C2505.71 472.7 2509.81 464 2511.41 452.8H2545.61C2542.41 473 2534.71 488.5 2522.51 499.3C2510.51 509.9 2494.51 515.2 2474.51 515.2C2462.31 515.2 2451.51 513.2 2442.11 509.2C2432.91 505 2425.11 499.4 2418.71 492.4C2412.31 485.2 2407.41 476.7 2404.01 466.9C2400.81 457.1 2399.21 446.5 2399.21 435.1C2399.21 423.5 2400.81 412.6 2404.01 402.4C2407.21 392.2 2412.01 383.4 2418.41 376C2424.81 368.4 2432.71 362.5 2442.11 358.3C2451.71 353.9 2462.91 351.7 2475.71 351.7C2484.71 351.7 2493.21 352.9 2501.21 355.3C2509.41 357.5 2516.61 360.9 2522.81 365.5C2529.21 370.1 2534.41 375.9 2538.41 382.9C2542.41 389.9 2544.81 398.2 2545.61 407.8H2511.41ZM2556.31 355.9H2593.81L2634.31 471.7H2634.91L2674.21 355.9H2709.91L2649.61 519.4C2646.81 526.4 2644.01 533.1 2641.21 539.5C2638.61 545.9 2635.31 551.5 2631.31 556.3C2627.51 561.3 2622.71 565.2 2616.91 568C2611.11 571 2603.71 572.5 2594.71 572.5C2586.71 572.5 2578.81 571.9 2571.01 570.7V541.9C2573.81 542.3 2576.51 542.7 2579.11 543.1C2581.71 543.7 2584.41 544 2587.21 544C2591.21 544 2594.51 543.5 2597.11 542.5C2599.71 541.5 2601.81 540 2603.41 538C2605.21 536.2 2606.71 534 2607.91 531.4C2609.11 528.8 2610.21 525.8 2611.21 522.4L2615.11 510.4L2556.31 355.9Z" fill="white"/>
<defs>
<linearGradient id="paint0_linear_301_289" x1="481.035" y1="0" x2="435.198" y2="802.697" gradientUnits="userSpaceOnUse">
<stop stop-color="#BD52C6"/>
<stop offset="1" stop-color="#4D179F"/>
</linearGradient>
<linearGradient id="paint1_linear_301_289" x1="483.503" y1="4.16799e-05" x2="437.669" y2="802.399" gradientUnits="userSpaceOnUse">
<stop stop-color="#9E3AA0"/>
<stop offset="0.380208" stop-color="#E26FE7"/>
<stop offset="1" stop-color="#5017A0"/>
</linearGradient>
<radialGradient id="paint2_radial_301_289" cx="0" cy="0" r="1" gradientUnits="userSpaceOnUse" gradientTransform="translate(545.388 424.354) rotate(104.569) scale(382.132 115.109)">
<stop stop-color="#FEF752"/>
<stop offset="0.6875" stop-color="#ED712E"/>
</radialGradient>
<radialGradient id="paint3_radial_301_289" cx="0" cy="0" r="1" gradientUnits="userSpaceOnUse" gradientTransform="translate(396.183 536.401) rotate(72.4082) scale(260.851 97.6379)">
<stop offset="0.171875" stop-color="#34689E"/>
<stop offset="1" stop-color="#5017A0" stop-opacity="0.46"/>
</radialGradient>
<linearGradient id="paint4_linear_301_289" x1="621.49" y1="321.061" x2="459.909" y2="792.514" gradientUnits="userSpaceOnUse">
<stop offset="0.140625" stop-color="#57BB82"/>
<stop offset="1" stop-color="#B7CE38"/>
</linearGradient>
<linearGradient id="paint5_linear_301_289" x1="629.209" y1="323.706" x2="467.628" y2="795.159" gradientUnits="userSpaceOnUse">
<stop stop-color="#84179F"/>
<stop offset="0.760417" stop-color="#FDF77D"/>
</linearGradient>
<linearGradient id="paint6_linear_301_289" x1="602.639" y1="419.671" x2="473.284" y2="797.097" gradientUnits="userSpaceOnUse">
<stop offset="0.348958" stop-color="#3E2A58" stop-opacity="0.25"/>
<stop offset="1" stop-color="#4B9FD1" stop-opacity="0"/>
</linearGradient>
<linearGradient id="paint7_linear_301_289" x1="703.298" y1="307.376" x2="528.811" y2="816.486" gradientUnits="userSpaceOnUse">
<stop stop-color="#2C55A5"/>
<stop offset="1" stop-color="#55B683"/>
</linearGradient>
<linearGradient id="paint8_linear_301_289" x1="636.394" y1="326.169" x2="474.814" y2="797.622" gradientUnits="userSpaceOnUse">
<stop stop-color="#C66550"/>
<stop offset="0.6875" stop-color="#ECCA71"/>
</linearGradient>
<radialGradient id="paint9_radial_301_289" cx="0" cy="0" r="1" gradientUnits="userSpaceOnUse" gradientTransform="translate(296.579 302.44) rotate(69.5874) scale(512.713 199.777)">
<stop stop-color="#4E17A0"/>
<stop offset="0.828125" stop-color="#B94EBE"/>
<stop offset="0.96875" stop-color="#E854EF"/>
</radialGradient>
<radialGradient id="paint10_radial_301_289" cx="0" cy="0" r="1" gradientUnits="userSpaceOnUse" gradientTransform="translate(412.688 574.409) rotate(-148.124) scale(449.645 1257.94)">
<stop stop-color="#1B438D"/>
<stop offset="1" stop-color="#56C18C"/>
</radialGradient>
<radialGradient id="paint11_radial_301_289" cx="0" cy="0" r="1" gradientUnits="userSpaceOnUse" gradientTransform="translate(470.403 599.505) rotate(-150.25) scale(335.28 1046.49)">
<stop stop-color="#5017A0"/>
<stop offset="1" stop-color="#DB6550"/>
</radialGradient>
<radialGradient id="paint12_radial_301_289" cx="0" cy="0" r="1" gradientUnits="userSpaceOnUse" gradientTransform="translate(469.779 684.886) rotate(-148.979) scale(300.252 478.655)">
<stop stop-color="#EAC272"/>
<stop offset="1" stop-color="#DD6652"/>
</radialGradient>
<radialGradient id="paint13_radial_301_289" cx="0" cy="0" r="1" gradientUnits="userSpaceOnUse" gradientTransform="translate(236.208 610.155) rotate(37.3397) scale(274.557 293.861)">
<stop stop-color="#4756A8"/>
<stop offset="0.994792" stop-color="#9A389F"/>
</radialGradient>
<linearGradient id="paint14_linear_301_289" x1="101.854" y1="674.441" x2="442.878" y2="792.876" gradientUnits="userSpaceOnUse">
<stop stop-color="#DED619"/>
<stop offset="0.458333" stop-color="#58BB82"/>
<stop offset="0.963542" stop-color="#5017A0"/>
</linearGradient>
<linearGradient id="paint15_linear_301_289" x1="159.504" y1="803.08" x2="395.204" y2="680.725" gradientUnits="userSpaceOnUse">
<stop offset="0.21875" stop-color="#A13BA1"/>
<stop offset="1" stop-color="#49198B"/>
</linearGradient>
<radialGradient id="paint16_radial_301_289" cx="0" cy="0" r="1" gradientUnits="userSpaceOnUse" gradientTransform="translate(756.979 567.954) rotate(146.088) scale(294.158 110.818)">
<stop stop-color="#D3644E"/>
<stop offset="0.22333" stop-color="#98436D"/>
<stop offset="0.671875" stop-color="#6E298B"/>
<stop offset="1" stop-color="#5017A0"/>
</radialGradient>
</defs>
</svg>
