<svg viewBox="0 0 1024 1176.463" xmlns="http://www.w3.org/2000/svg"><path d="M517.278 551.552h1.2c.237-.004.516-.006.796-.006 30.408 0 55.06 24.65 55.06 55.06 0 23.227-14.384 43.095-34.73 51.183l-.372.13h-3.44v46.336c0 7.08-3.664 13.303-9.2 16.877l-.08.048h-20.43c-5.763-3.722-9.538-10.09-9.598-17.345V657.96c-20.708-8.226-35.082-28.09-35.082-51.31 0-30.412 24.653-55.065 55.064-55.065.286 0 .57.002.855.007h-.042zm-18.554-207.784h32.192c27.308.088 52.02 11.13 69.987 28.958l-.006-.006c17.953 17.48 29.114 41.86 29.192 68.846v.015l.12 40.39H399.472v-40.39c.077-27 11.238-51.38 29.17-68.838l.02-.02c17.973-17.836 42.696-28.89 70-28.993h.02zm0-78.777h-.112c-49.29 0-93.95 19.837-126.428 51.962l.016-.016c-32.5 31.563-52.665 75.672-52.665 124.49v.162-.008 39.15L297.3 520.836v57.743c.093 54.276 22.503 103.3 58.542 138.4l.042.04c36.267 35.605 86.018 57.584 140.903 57.584H532.873c54.838-.01 104.54-21.988 140.788-57.61l-.028.027c36.14-35.11 58.587-84.146 58.663-138.425v-57.797l-21.994-40.11v-39.187c-.06-48.865-20.26-93-52.742-124.563l-.042-.04c-32.462-32.11-77.12-51.945-126.412-51.945h-.202.01zM511.52 82.365h.1c237.293 0 429.656 192.364 429.656 429.656S748.912 941.676 511.62 941.676c-237.293 0-429.656-192.364-429.656-429.656v-.148-.046c0-237.185 192.277-429.462 429.462-429.462h.1-.005zm.48-50.226C246.977 32.138 32.136 246.98 32.136 512S246.98 991.862 512 991.862 991.86 777.02 991.86 512C991.85 246.984 777.016 32.15 512 32.138z"/></svg>